<svg width="2130" height="1590" viewBox="0 0 2130 1590" fill="none" xmlns="http://www.w3.org/2000/svg">
<path d="M1047.56 1203.42L795.737 1304.54L484.018 528.454L696.874 442.987C707.206 438.837 718.764 438.962 729.005 443.333C739.245 447.704 747.33 455.964 751.48 466.295L1047.56 1203.42Z" fill="#F4A640"/>
<path d="M956.988 496.745L474.816 582.189L594.964 1260.05L1077.14 1174.6L956.988 496.745Z" fill="#ADCFD8"/>
<path d="M835.193 587.716L619.876 625.871L620.733 630.708L836.051 592.552L835.193 587.716Z" fill="#55769F"/>
<path d="M878.259 567.446L572.475 621.633L573.332 626.47L879.116 572.283L878.259 567.446Z" fill="#55769F"/>
<path d="M922.02 624.681L551.036 690.421L551.893 695.258L922.877 629.518L922.02 624.681Z" fill="#55769F"/>
<path d="M926.146 647.917L555.163 713.658L556.02 718.495L927.004 652.754L926.146 647.917Z" fill="#55769F"/>
<path d="M934.383 694.416L563.399 760.156L564.256 764.993L935.24 699.253L934.383 694.416Z" fill="#55769F"/>
<path d="M938.502 717.66L567.518 783.401L568.376 788.238L939.359 722.497L938.502 717.66Z" fill="#55769F"/>
<path d="M942.621 740.914L571.637 806.655L572.495 811.492L943.479 745.751L942.621 740.914Z" fill="#55769F"/>
<path d="M960.752 843.157L589.768 908.898L590.625 913.735L961.609 847.994L960.752 843.157Z" fill="#55769F"/>
<path d="M965.017 867.267L594.033 933.007L594.891 937.844L965.875 872.104L965.017 867.267Z" fill="#55769F"/>
<path d="M969.301 891.368L598.317 957.109L599.174 961.946L970.158 896.205L969.301 891.368Z" fill="#55769F"/>
<path d="M973.566 915.478L602.582 981.218L603.439 986.055L974.423 920.315L973.566 915.478Z" fill="#55769F"/>
<path d="M977.84 939.587L606.856 1005.33L607.713 1010.16L978.697 944.424L977.84 939.587Z" fill="#55769F"/>
<path d="M982.115 963.689L611.131 1029.43L611.989 1034.27L982.972 968.526L982.115 963.689Z" fill="#55769F"/>
<path d="M986.388 987.799L615.405 1053.54L616.262 1058.38L987.246 992.636L986.388 987.799Z" fill="#55769F"/>
<path d="M887.496 479.849L413.925 604.427L589.102 1270.19L1062.67 1145.61L887.496 479.849Z" fill="#DAEEF7"/>
<path d="M773.544 580.468L562.068 636.099L563.318 640.85L774.794 585.218L773.544 580.468Z" fill="#55769F"/>
<path d="M814.802 556.75L514.473 635.754L515.723 640.505L816.052 561.5L814.802 556.75Z" fill="#55769F"/>
<path d="M863.106 610.214L498.74 706.064L499.99 710.815L864.356 614.964L863.106 610.214Z" fill="#55769F"/>
<path d="M869.115 633.041L504.75 728.891L506 733.642L870.365 637.792L869.115 633.041Z" fill="#55769F"/>
<path d="M881.128 678.7L516.762 774.55L518.01 779.293L882.376 683.442L881.128 678.7Z" fill="#55769F"/>
<path d="M887.139 701.537L522.773 797.387L524.023 802.138L888.389 706.288L887.139 701.537Z" fill="#55769F"/>
<path d="M893.148 724.366L528.783 820.216L530.033 824.967L894.398 729.117L893.148 724.366Z" fill="#55769F"/>
<path d="M918.393 831.443L552.931 925.624L554.159 930.388L919.621 836.208L918.393 831.443Z" fill="#55769F"/>
<path d="M925.802 848.48L561.437 944.33L562.687 949.081L927.052 853.23L925.802 848.48Z" fill="#55769F"/>
<path d="M932.035 872.145L567.67 967.996L568.92 972.746L933.285 876.896L932.035 872.145Z" fill="#55769F"/>
<path d="M938.262 895.819L573.896 991.669L575.146 996.42L939.512 900.57L938.262 895.819Z" fill="#55769F"/>
<path d="M944.495 919.501L580.13 1015.35L581.38 1020.1L945.745 924.252L944.495 919.501Z" fill="#55769F"/>
<path d="M949.116 950.311L583.654 1044.49L584.882 1049.26L950.344 955.076L949.116 950.311Z" fill="#55769F"/>
<path d="M956.949 966.859L592.583 1062.71L593.834 1067.46L958.199 971.61L956.949 966.859Z" fill="#55769F"/>
<path d="M952.004 1241.79L445.031 1445.37L149.378 709.189L575.355 446.422C580.98 442.952 587.295 440.754 593.859 439.98C600.422 439.207 607.076 439.877 613.353 441.944C619.631 444.011 625.381 447.425 630.2 451.946C635.02 456.468 638.793 461.988 641.255 468.121L952.004 1241.79Z" fill="#FEB546"/>
<path d="M281.429 1326.23L209.13 1324.92C184.018 1279.42 165.594 1239.86 165.594 1239.86C247.279 1221.03 316.217 1228.76 373.645 1250.84L405.296 1327.71L412.068 1268.52C554.409 1345.32 613.057 1507.9 613.057 1507.9C613.057 1507.9 361.504 1481.11 308.176 1456.32C287.586 1446.74 261.636 1412.29 237.536 1373.59C256.806 1355.25 281.429 1326.23 281.429 1326.23Z" fill="#FF5B7E"/>
<path d="M165.577 1239.86C165.577 1239.86 488.541 1375.75 613.04 1507.88C613.04 1507.88 361.487 1481.08 308.159 1456.29C287.57 1446.72 261.619 1412.26 237.52 1373.57C256.806 1355.22 281.428 1326.21 281.428 1326.21L209.129 1324.92C184.001 1279.42 165.577 1239.86 165.577 1239.86Z" fill="#E03268"/>
<path d="M175.884 1457.1C219.37 1430.62 263.237 1416.44 305.702 1410.8C318.15 1426.27 333.42 1444.47 333.42 1444.47L335.03 1408.2C497.935 1400.78 632.957 1509.91 632.957 1509.91C538.591 1569.33 458.093 1585.71 392.159 1580.42C388.25 1567.72 382.723 1548.79 382.723 1548.79L371.105 1577.94C342.025 1573.36 313.831 1564.3 287.528 1551.08C293.702 1535.97 300.2 1518.72 300.2 1518.72L265.088 1538.64C206.216 1502.67 175.884 1457.1 175.884 1457.1Z" fill="#FF5B7E"/>
<path d="M392.159 1580.42C388.25 1567.72 382.723 1548.79 382.723 1548.79L371.105 1577.94C342.025 1573.36 313.83 1564.3 287.528 1551.08C293.702 1535.97 300.2 1518.72 300.2 1518.72L265.088 1538.64C206.249 1502.67 175.917 1457.05 175.917 1457.05C365.719 1435.13 632.948 1509.87 632.948 1509.87C538.591 1569.33 458.093 1585.71 392.159 1580.42Z" fill="#E03268"/>
<path d="M1126.4 478.626L1184.7 435.809C1178.89 384.164 1171.14 341.214 1171.14 341.214C1093.57 372.986 1041.74 419.081 1007.58 470.262L1026.12 551.298L986.419 506.872C914.518 651.735 960.485 818.347 960.485 818.347C960.485 818.347 1150.44 651.287 1179.66 600.263C1190.96 580.556 1192.25 537.449 1189.62 491.952C1163.26 488.094 1126.4 478.626 1126.4 478.626Z" fill="#02CCC0"/>
<path d="M1171.14 341.222C1171.14 341.222 985.862 638.591 960.485 818.346C960.485 818.346 1150.44 651.287 1179.66 600.263C1190.96 580.556 1192.25 537.449 1189.62 491.952C1163.28 488.085 1126.43 478.617 1126.43 478.617L1184.73 435.801C1178.93 384.188 1171.14 341.222 1171.14 341.222Z" fill="#06BFAD"/>
<path d="M1288.11 524.529C1237.32 528.006 1193.31 541.764 1155.33 561.646C1154.1 581.461 1152.13 605.134 1152.13 605.134L1129.88 576.449C992.568 664.406 945.348 831.441 945.348 831.441C1056.72 825.541 1131.91 792.441 1182.69 750.122C1178.54 737.501 1172.15 718.856 1172.15 718.856L1198.47 735.924C1219.58 715.412 1237.38 691.747 1251.22 665.775C1237.47 656.987 1222.18 646.632 1222.18 646.632L1262.36 642.649C1289.67 579.295 1288.11 524.529 1288.11 524.529Z" fill="#02CCC0"/>
<path d="M1182.72 750.122C1178.57 737.501 1172.17 718.856 1172.17 718.856L1198.49 735.925C1219.6 715.412 1237.4 691.747 1251.25 665.775C1237.49 656.987 1222.2 646.632 1222.2 646.632L1262.39 642.649C1289.67 579.328 1288.11 524.563 1288.11 524.563C1120.48 616.204 945.373 831.474 945.373 831.474C1056.76 825.541 1131.95 792.441 1182.72 750.122Z" fill="#06BFAD"/>
<path d="M1754.16 736.373H1788.83C1782.78 732.29 1775.64 730.13 1768.34 730.174H899.83C854.394 730.174 817.555 762.826 817.555 803.096V849.414C817.555 889.691 854.394 922.343 899.83 922.343L1758.63 922.086L1754.16 736.373Z" fill="#E03268"/>
<path d="M890.41 849.414V803.095C890.41 762.826 927.24 730.174 972.684 730.174H954.037C908.592 730.174 871.754 762.826 871.754 803.095V849.414C871.754 889.691 908.592 922.343 954.037 922.343H972.435C927.115 922.219 890.41 889.617 890.41 849.414Z" fill="#FEB546"/>
<path d="M1093.78 849.414V803.095C1093.78 762.826 1130.62 730.174 1176.05 730.174H1157.41C1111.97 730.174 1075.13 762.826 1075.13 803.095V849.414C1075.13 889.691 1111.97 922.343 1157.41 922.343H1175.81C1130.52 922.219 1093.78 889.617 1093.78 849.414Z" fill="#FEB546"/>
<path d="M1261.08 730.348C1217.63 730.348 1182.4 761.565 1182.4 800.05V852.393C1182.4 890.911 1217.63 922.094 1261.08 922.094H1801.76V910.386H1799.53L1662.07 898.844L1634.29 802.249C1634.29 802.249 1687.92 748.869 1691.41 747.483C1694.9 746.098 1799.53 741.924 1799.53 741.924H1801.76V730.307L1261.08 730.348Z" fill="#FF5B7E"/>
<path d="M1766.69 825.914C1766.69 769.431 1799.62 742.057 1799.62 742.057H1272.2C1232.29 742.057 1199.93 770.734 1199.93 806.107V846.377C1199.93 881.759 1232.29 910.436 1272.2 910.436H1799.66C1799.66 910.436 1766.69 896.993 1766.69 825.914Z" fill="#DAEEF7"/>
<g style="mix-blend-mode:multiply">
<path d="M1199.89 806.107V846.377C1199.89 851.571 1200.6 856.741 1202 861.744C1219.79 823.159 1253.88 786.002 1318.79 774.061C1470.32 746.164 1799.62 742.032 1799.62 742.032H1272.2C1232.25 742.057 1199.89 770.734 1199.89 806.107Z" fill="#DAEEF7"/>
</g>
<path d="M1739.86 1120.47H1779.09C1772.42 1115.42 1764.28 1112.7 1755.91 1112.71H772.925C721.472 1112.71 679.804 1153.58 679.804 1203.99V1261.97C679.804 1312.38 721.497 1353.25 772.925 1353.25L1744.92 1352.92L1739.86 1120.47Z" fill="#07085B"/>
<path d="M1181.8 1112.93C1132.61 1112.93 1092.74 1152.01 1092.74 1200.22V1265.77C1092.74 1313.98 1132.58 1353.07 1181.8 1353.07H1793.73V1338.41H1791.2L1635.63 1323.97L1604.16 1203.02C1604.16 1203.02 1664.85 1136.2 1668.8 1134.48C1672.76 1132.77 1791.17 1127.53 1791.17 1127.53H1793.7V1112.95L1181.8 1112.93Z" fill="#55769F"/>
<path d="M1754.04 1232.55C1754.04 1161.86 1791.31 1127.58 1791.31 1127.58H1194.33C1149.16 1127.58 1112.54 1163.49 1112.54 1207.76V1258.2C1112.54 1302.48 1149.16 1338.38 1194.33 1338.38H1791.31C1791.31 1338.38 1754.04 1321.57 1754.04 1232.55Z" fill="#DAEEF7"/>
<g style="mix-blend-mode:multiply">
<path d="M1112.54 1207.76V1258.2C1112.54 1264.68 1113.34 1271.14 1114.92 1277.43C1135.05 1229.14 1173.64 1182.63 1247.1 1167.68C1418.61 1132.76 1791.31 1127.58 1791.31 1127.58H1194.33C1149.16 1127.58 1112.54 1163.49 1112.54 1207.76Z" fill="#DAEEF7"/>
</g>
<path d="M647.405 928.01H608.152C615.186 923.903 623.201 921.776 631.347 921.853H1614.75C1666.21 921.853 1707.91 954.281 1707.91 994.277V1040.29C1707.91 1080.28 1666.2 1112.71 1614.75 1112.71L642.326 1112.45L647.405 928.01Z" fill="#02CCC0"/>
<path d="M1205.69 922.02C1254.88 922.02 1294.78 953.028 1294.78 991.29V1043.28C1294.78 1081.53 1254.88 1112.55 1205.69 1112.55H593.513V1100.93H596.044L751.671 1089.47L783.124 993.522C783.124 993.522 722.418 940.507 718.459 939.138C714.501 937.769 596.044 933.628 596.044 933.628H593.513V922.061L1205.69 922.02Z" fill="#06BFAD"/>
<path d="M633.197 1016.94C633.197 960.845 595.919 933.653 595.919 933.653H1193.13C1238.33 933.653 1274.96 962.131 1274.96 997.272V1037.29C1274.96 1072.43 1238.33 1100.91 1193.13 1100.91H595.936C595.936 1100.91 633.197 1087.57 633.197 1016.94Z" fill="#DAEEF7"/>
<g style="mix-blend-mode:multiply">
<path d="M1274.98 997.272V1037.29C1274.97 1042.47 1274.16 1047.62 1272.59 1052.55C1252.44 1014.23 1213.85 977.324 1140.35 965.425C968.783 937.727 595.952 933.62 595.952 933.62H1193.17C1238.34 933.653 1274.98 962.131 1274.98 997.272Z" fill="#DAEEF7"/>
</g>
<path opacity="0.5" d="M1527.72 1040.29V994.277C1527.72 954.282 1486.02 921.854 1434.57 921.854H1527.95C1579.4 921.854 1621.11 954.282 1621.11 994.277V1040.29C1621.11 1080.28 1579.4 1112.71 1527.95 1112.71H1435.83C1486.69 1112.17 1527.72 1079.96 1527.72 1040.29Z" fill="#55769F"/>
<path d="M573.164 1360.62H530.841C538.375 1356.05 547.033 1353.67 555.845 1353.74H1615.95C1671.41 1353.74 1716.36 1389.97 1716.36 1434.67V1486.06C1716.36 1530.76 1671.4 1566.99 1615.95 1566.99L567.712 1566.7L573.164 1360.62Z" fill="#FEB546"/>
<path d="M1175 1353.93C1228.05 1353.93 1271.04 1388.58 1271.04 1431.32V1489.41C1271.04 1532.15 1228.05 1566.8 1175 1566.8H515.064V1553.81H517.795L685.563 1541L719.505 1433.8C719.505 1433.8 654.061 1374.57 649.795 1373.04C645.53 1371.51 517.845 1366.88 517.845 1366.88H515.114V1353.95L1175 1353.93Z" fill="#F4A640"/>
<path d="M557.869 1459.98C557.869 1397.31 517.678 1366.92 517.678 1366.92H1161.49C1210.2 1366.92 1249.7 1398.75 1249.7 1438.01V1482.72C1249.7 1521.98 1210.2 1553.81 1161.49 1553.81H517.678C517.678 1553.81 557.869 1538.9 557.869 1459.98Z" fill="#DAEEF7"/>
<path d="M594.459 1506.38L603.471 1526.48C603.82 1527.28 603.841 1528.18 603.531 1529C603.221 1529.81 602.603 1530.47 601.811 1530.83L554.757 1551.92C554.02 1552.26 553.195 1552.34 552.405 1552.17C551.615 1551.99 550.904 1551.56 550.379 1550.95C549.854 1550.33 549.543 1549.56 549.495 1548.75C549.446 1547.95 549.662 1547.15 550.11 1546.47L568.317 1518.1C568.317 1518.1 582.716 1520.74 594.459 1506.38Z" fill="#07085B"/>
<path d="M654.252 1506.38L663.264 1526.48C663.613 1527.28 663.635 1528.18 663.324 1529C663.014 1529.81 662.396 1530.47 661.604 1530.83L614.542 1551.92C613.806 1552.25 612.983 1552.33 612.196 1552.15C611.41 1551.98 610.703 1551.55 610.18 1550.93C609.657 1550.32 609.346 1549.55 609.295 1548.75C609.244 1547.95 609.454 1547.15 609.895 1546.47L628.152 1518.1C628.152 1518.1 642.509 1520.74 654.252 1506.38Z" fill="#07085B"/>
<path d="M1663.68 903.781L1654.68 923.87C1654.33 924.669 1654.3 925.573 1654.61 926.389C1654.93 927.204 1655.54 927.864 1656.34 928.227L1703.4 949.32C1704.14 949.648 1704.96 949.729 1705.75 949.551C1706.53 949.372 1707.24 948.945 1707.76 948.331C1708.29 947.718 1708.6 946.951 1708.65 946.147C1708.7 945.342 1708.49 944.543 1708.05 943.868L1689.83 915.498C1689.83 915.498 1675.43 918.128 1663.68 903.781Z" fill="#07085B"/>
<path d="M1602.69 901.383L1593.69 921.48C1593.34 922.279 1593.32 923.184 1593.63 923.999C1593.94 924.814 1594.56 925.474 1595.35 925.837L1642.4 946.93C1643.14 947.26 1643.97 947.343 1644.75 947.165C1645.54 946.987 1646.25 946.558 1646.78 945.943C1647.3 945.327 1647.61 944.559 1647.66 943.752C1647.71 942.946 1647.5 942.145 1647.05 941.47L1628.84 913.1C1628.84 913.1 1614.45 915.738 1602.69 901.383Z" fill="#07085B"/>
<g style="mix-blend-mode:multiply">
<path d="M1249.7 1438.01V1482.72C1249.7 1488.5 1248.83 1494.25 1247.13 1499.77C1225.42 1456.96 1183.8 1415.72 1104.58 1402.46C919.614 1371.51 517.678 1366.92 517.678 1366.92H1161.49C1210.2 1366.92 1249.7 1398.75 1249.7 1438.01Z" fill="#DAEEF7"/>
</g>
<path d="M755.904 952.356L760.883 983.739L771.456 941.893C771.456 941.893 756.634 934.707 755.978 937.321C755.323 939.934 755.904 952.356 755.904 952.356Z" fill="#07085B"/>
<path d="M840.011 1019.9L844.584 1074.14L796.708 1071.86L802.227 1023.82L840.011 1019.9Z" fill="#FFC0BB"/>
<path d="M799.605 1046.67L802.227 1023.82L840.012 1019.9L841.597 1038.69C834.078 1046.17 820.576 1053.93 799.605 1046.67Z" fill="#F99893"/>
<path d="M770.243 983.34C773.123 989.298 771.596 995.986 766.833 998.277C762.069 1000.57 755.87 997.621 752.99 991.638C750.111 985.656 751.646 978.992 756.409 976.702C761.173 974.412 767.364 977.391 770.243 983.34Z" fill="#F99893"/>
<path d="M763.297 987.705C763.04 986.153 762.708 984.618 762.335 983.092C760.667 976.197 760.452 969.032 761.702 962.05C762.953 955.068 765.642 948.423 769.598 942.535C773.555 936.648 778.692 931.648 784.685 927.852C790.677 924.057 797.394 921.549 804.408 920.487C811.422 919.426 818.58 919.835 825.427 921.687C832.275 923.54 838.662 926.796 844.183 931.249C849.705 935.702 854.24 941.255 857.501 947.554C860.761 953.853 862.676 960.761 863.124 967.84C864.546 966.845 866.183 966.199 867.901 965.954C869.62 965.709 871.372 965.872 873.016 966.43C879.24 968.753 881.945 976.951 879.041 984.734C876.136 992.518 868.734 996.957 862.501 994.634C861.654 994.311 860.855 993.873 860.128 993.331C859.165 1018.49 839.904 1039.08 815.314 1040.23C803.671 1040.76 792.262 1036.84 783.405 1029.26C771.604 1020.63 765.629 1002.17 763.297 987.705Z" fill="#FFC0BB"/>
<path d="M800.592 971.3C800.493 974.229 800.468 977.109 800.318 979.897C800.169 982.685 799.837 985.564 798.733 987.498C797.621 989.058 796.733 990.053 796.708 991.978C796.702 992.884 796.899 993.779 797.285 994.598C797.672 995.417 798.238 996.138 798.941 996.708C800.169 997.669 801.607 998.326 803.137 998.624C804.667 998.923 806.247 998.855 807.746 998.426C804.883 997.92 802.144 996.941 800.551 995.107C800.181 994.716 799.896 994.254 799.713 993.749C799.531 993.243 799.454 992.706 799.488 992.169C799.613 991.091 799.945 990.875 801.24 989.074C802.033 987.632 802.505 986.036 802.625 984.394C802.767 982.896 802.767 981.387 802.625 979.889C802.364 976.943 801.679 974.051 800.592 971.3Z" fill="#F99893"/>
<path d="M817.563 975.175C817.605 976.057 817.908 976.907 818.433 977.617C818.958 978.327 819.681 978.865 820.512 979.164C821.343 979.463 822.244 979.508 823.101 979.295C823.958 979.082 824.732 978.62 825.326 977.967C825.92 977.314 826.307 976.499 826.438 975.626C826.569 974.753 826.438 973.86 826.062 973.062C825.686 972.263 825.082 971.593 824.325 971.138C823.569 970.683 822.694 970.462 821.812 970.504C821.226 970.531 820.652 970.674 820.121 970.924C819.591 971.174 819.114 971.526 818.72 971.96C818.325 972.393 818.02 972.901 817.821 973.453C817.623 974.004 817.535 974.59 817.563 975.175Z" fill="#333333"/>
<path d="M779.372 979.482C779.414 980.364 779.717 981.213 780.242 981.923C780.767 982.633 781.49 983.172 782.321 983.47C783.152 983.769 784.053 983.815 784.91 983.602C785.767 983.389 786.541 982.926 787.135 982.273C787.729 981.62 788.116 980.805 788.247 979.932C788.378 979.059 788.248 978.167 787.871 977.368C787.495 976.569 786.891 975.9 786.134 975.445C785.378 974.989 784.503 974.769 783.621 974.81C783.035 974.838 782.461 974.981 781.93 975.231C781.4 975.48 780.923 975.832 780.529 976.266C780.134 976.7 779.829 977.207 779.631 977.759C779.432 978.311 779.344 978.896 779.372 979.482Z" fill="#333333"/>
<path d="M825.049 1005.4C822.721 1007.42 820.147 1009.14 817.389 1010.51C814.663 1011.86 811.733 1012.76 808.717 1013.16C805.703 1013.52 802.649 1013.3 799.721 1012.5C796.768 1011.63 793.952 1010.35 791.356 1008.7C793.735 1010.75 796.484 1012.34 799.455 1013.36C802.478 1014.38 805.691 1014.71 808.858 1014.32C812.009 1013.91 815.048 1012.88 817.804 1011.3C820.547 1009.77 822.999 1007.78 825.049 1005.4Z" fill="#F99893"/>
<path d="M811.953 965.094C814.088 964.409 816.271 963.885 818.484 963.525C820.538 963.198 822.626 963.15 824.692 963.384C826.745 963.619 828.752 964.153 830.65 964.969C832.144 965.434 835.746 967.55 836.684 967.965C835.608 965.793 833.997 963.931 832.003 962.555C829.966 961.081 827.581 960.163 825.082 959.891C822.593 959.602 820.072 959.938 817.746 960.87C815.474 961.739 813.475 963.197 811.953 965.094Z" fill="#07085B"/>
<path d="M792.285 967.301C790.422 965.743 788.18 964.703 785.787 964.289C783.322 963.825 780.78 963.985 778.393 964.753C776.049 965.516 773.929 966.842 772.218 968.616C770.508 970.39 769.26 972.557 768.583 974.927C769.413 974.329 772.55 971.558 773.92 970.778C775.622 969.603 777.491 968.688 779.463 968.064C781.441 967.431 783.496 967.07 785.571 966.994C787.813 966.935 790.057 967.037 792.285 967.301Z" fill="#07085B"/>
<path d="M813.647 1274.38C813.647 1274.38 823.605 1342.1 758.186 1353.9C692.766 1365.7 611.297 1362.2 611.297 1362.2L600.003 1517.75L565.836 1519.5C565.836 1519.5 477.869 1303.35 599.637 1269.56L709.065 1270.09L754.119 1266.88C754.119 1266.88 799.713 1255.61 800.252 1257.75C800.792 1259.89 812.568 1275.46 813.647 1274.38Z" fill="#06BFAD"/>
<path d="M873.788 1274.74C873.788 1274.74 883.746 1342.46 818.327 1354.26C752.907 1366.06 671.438 1362.56 671.438 1362.56L660.102 1518.13L625.936 1519.87C625.936 1519.87 537.969 1303.72 659.737 1269.93L769.165 1270.46L814.219 1267.25C814.219 1267.25 859.812 1255.98 860.352 1258.12C860.891 1260.26 872.709 1275.81 873.788 1274.74Z" fill="#02CCC0"/>
<path d="M791.356 1052.51C791.356 1052.51 746.302 1058.24 734.858 1067.53C723.414 1076.82 668.343 1213.41 668.343 1213.41L714.111 1267.08L811.381 1267.79C811.381 1267.79 884.336 1307.12 930.112 1269.94C975.888 1232.76 952.278 1103.31 925.821 1075.42C899.365 1047.53 852.153 1048.25 852.153 1048.25C852.153 1048.25 809.24 1078.26 791.356 1052.51Z" fill="#FF5B7E"/>
<path d="M878.618 1120.45C877.052 1127.9 875.943 1135.45 875.298 1143.03C874.908 1146.82 874.742 1150.62 874.527 1154.43C874.311 1158.24 874.319 1162.05 874.369 1165.87C874.416 1173.51 875.046 1181.14 876.253 1188.69C877.531 1196.21 879.39 1203.76 882.892 1210.56C880.535 1203.31 879.373 1195.86 878.527 1188.39C877.68 1180.92 877.406 1173.37 877.315 1165.83C877.224 1158.28 877.315 1150.73 877.58 1143.17C877.846 1135.61 878.211 1128.05 878.618 1120.45Z" fill="white"/>
<path d="M743.795 1115.44C741.737 1126.52 739.554 1137.56 737.339 1148.58C735.123 1159.61 732.741 1170.57 730.069 1181.48C727.397 1192.38 724.509 1203.22 720.94 1213.84C719.196 1219.15 717.168 1224.37 714.866 1229.47C712.671 1234.64 709.763 1239.48 706.227 1243.84C710.376 1239.98 713.413 1235.08 716.185 1230.14C718.837 1225.13 721.157 1219.96 723.131 1214.64C725.156 1209.36 726.891 1203.97 728.534 1198.57C730.177 1193.17 731.571 1187.68 732.932 1182.21C734.293 1176.73 735.463 1171.2 736.575 1165.67C737.687 1160.13 738.7 1154.59 739.588 1149.02C741.43 1137.87 742.866 1126.68 743.795 1115.44Z" fill="white"/>
<path d="M721.165 1236.14C721.447 1233.88 738.592 1231.35 744.957 1231.02C749.746 1230.77 781.472 1229.71 792.26 1229.23L791.472 1232L791.638 1244.26L793.406 1252.38C783.937 1252.98 760.783 1253.88 755.97 1254.87C749.53 1256.15 738.36 1261 738.36 1261C738.36 1261 733.712 1259.94 739.613 1257.4C743.208 1255.82 746.435 1253.5 749.09 1250.6C749.92 1249.7 749.024 1248.12 748.434 1248.24C732.36 1252.46 730.708 1253.15 730.708 1253.15C730.708 1253.15 711.812 1253.04 730.6 1248.8C741.862 1246.26 745.895 1244.78 746.899 1243.51C747.322 1242.98 746.559 1241.15 745.87 1241.1C736.119 1240.5 718.609 1243.96 723.405 1241.69C727.314 1239.84 739.638 1237.82 744.426 1237.05C744.717 1237 745.19 1235.22 743.887 1235.11C734.592 1234.31 720.891 1238.24 721.165 1236.14Z" fill="#FFC0BB"/>
<path d="M889.63 1208.68C885.672 1209.64 881.771 1210.75 877.796 1211.58C873.821 1212.41 869.854 1213.24 865.887 1214.07C857.921 1215.52 849.923 1216.81 841.896 1217.92C833.862 1218.97 825.821 1219.94 817.763 1220.72C809.705 1221.49 801.563 1222.2 793.613 1222.64L792.543 1222.7L792.302 1223.63C791.008 1228.9 790.356 1234.32 790.36 1239.75C790.383 1242.47 790.619 1245.18 791.066 1247.86C791.565 1250.54 792.355 1253.17 793.422 1255.68L793.514 1255.9L793.688 1256.01L802.518 1261.94C805.464 1263.91 808.418 1265.88 811.398 1267.8C808.631 1265.58 805.84 1263.4 803.024 1261.23L794.609 1254.74L794.875 1255.07C793.985 1252.64 793.365 1250.12 793.024 1247.55C792.702 1244.97 792.574 1242.37 792.642 1239.78C792.737 1237.17 792.972 1234.57 793.348 1231.98C793.715 1229.42 794.239 1226.87 794.916 1224.37L793.613 1225.35C797.812 1225.25 801.788 1224.97 805.879 1224.67C809.97 1224.38 814.003 1224.05 818.053 1223.63C826.153 1222.8 834.236 1221.78 842.277 1220.49C850.319 1219.21 858.327 1217.63 866.253 1215.75C870.203 1214.75 874.153 1213.77 878.045 1212.55C881.937 1211.33 885.78 1210.04 889.63 1208.68Z" fill="white"/>
<path d="M517.678 1145.1H693.613L743.497 1266.85H828.26C829.398 1266.85 830.49 1267.3 831.294 1268.11C832.099 1268.91 832.551 1270 832.551 1271.14C832.549 1272.28 832.096 1273.37 831.292 1274.17C830.488 1274.98 829.398 1275.43 828.26 1275.43H576.143L517.678 1145.1Z" fill="#07085B"/>
<path d="M604.915 1214.6C605.961 1219.79 610.476 1223.25 615.023 1222.35C619.571 1221.45 622.401 1216.54 621.364 1211.31C620.326 1206.07 615.804 1202.65 611.264 1203.56C606.725 1204.46 603.878 1209.41 604.915 1214.6Z" fill="#DAEEF7"/>
<path d="M754.941 922.667C754.941 922.667 739.92 923.148 755.688 910.444C771.456 897.74 813.779 882.854 840.9 897.167C840.9 897.167 846.327 885.633 854.178 888.388C862.029 891.143 849.074 899.076 849.074 899.076C849.074 899.076 859.091 898.752 862.145 903.665C864.402 907.299 858.269 907.457 854.917 907.291C860.618 908.262 882.477 922.061 871.514 966.122C867.614 965.292 845.398 933.055 845.398 933.055C845.398 933.055 794.593 961.268 799.622 938.864C799.622 938.864 746.982 971.707 754.451 944.573C754.435 944.556 734.078 946.05 754.941 922.667Z" fill="#07085B"/>
<path d="M871.538 966.396C871.538 966.396 867.331 964.919 862.808 968.512C858.285 972.105 858.783 984.718 858.783 984.718C858.783 984.718 837.206 998.641 839.464 939.719C841.887 877.029 857.48 944.747 857.48 944.747L871.538 966.396Z" fill="#07085B"/>
<path d="M1549.49 1526.54H1996.12V1501.78H1549.49V1526.54Z" fill="#DAEEF7"/>
<path d="M1983.66 1310.17L1990.43 1341.31C1991.05 1344.15 1991.1 1347.08 1990.58 1349.94C1990.06 1352.8 1988.98 1355.53 1987.4 1357.97C1985.82 1360.4 1983.78 1362.51 1981.38 1364.16C1978.99 1365.8 1976.29 1366.96 1973.45 1367.56L1574.58 1451.72C1571.68 1452.33 1568.68 1452.35 1565.77 1451.78C1562.86 1451.21 1560.1 1450.06 1557.64 1448.39C1555.19 1446.72 1553.1 1444.58 1551.49 1442.09C1549.89 1439.59 1548.8 1436.8 1548.3 1433.88L1544.79 1413.42C1544.02 1408.89 1544.68 1404.22 1546.69 1400.08C1548.7 1395.94 1551.95 1392.53 1555.99 1390.33L1675.49 1325.38C1678.02 1324 1680.79 1323.13 1683.66 1322.82L1957.29 1293.26L1959.25 1293C1964.73 1292.28 1970.28 1293.64 1974.8 1296.82C1979.32 1300 1982.48 1304.77 1983.66 1310.17Z" fill="#DAEEF7"/>
<path d="M1580.24 1402.72C1580.24 1402.72 1523.28 1444.21 1564.76 1512.62L1562.27 1530.26L1489.24 1535.24L1422.37 1521.61L1409.96 1410.15L1570.34 1362.5L1580.24 1402.72Z" fill="#E03268"/>
<path d="M1413.18 1566.98H2033.37C2039.24 1566.98 2044 1562.22 2044 1556.35V1523.24C2044 1517.37 2039.24 1512.61 2033.37 1512.61H1413.18C1407.31 1512.61 1402.55 1517.37 1402.55 1523.24V1556.35C1402.55 1562.22 1407.31 1566.98 1413.18 1566.98Z" fill="#FF5B7E"/>
<path d="M2029.67 1303.01L1573.8 1410.5C1570.15 1411.35 1566.35 1411.25 1562.75 1410.2C1544.81 1405.05 1484 1392.21 1432.82 1435.93C1420.74 1446.23 1402.11 1440.76 1397.73 1425.48L1389.58 1396.81C1388.29 1392.29 1388.51 1387.47 1390.2 1383.08C1391.89 1378.7 1394.96 1374.98 1398.94 1372.48C1465.13 1331.07 1754.89 1157.64 1945.64 1170.85C1954.5 1171.46 1963.08 1174.22 1970.64 1178.89C1978.19 1183.56 1984.5 1190 1989.01 1197.65L2038.71 1281.86C2039.84 1283.79 2040.5 1285.96 2040.64 1288.19C2040.78 1290.43 2040.4 1292.66 2039.52 1294.72C2038.64 1296.77 2037.29 1298.59 2035.58 1300.04C2033.87 1301.48 2031.84 1302.5 2029.67 1303.01Z" fill="#FF5B7E"/>
<path d="M1492.53 1496.29C1507.58 1496.29 1519.77 1484.1 1519.77 1469.05C1519.77 1454.01 1507.58 1441.81 1492.53 1441.81C1477.48 1441.81 1465.28 1454.01 1465.28 1469.05C1465.28 1484.1 1477.48 1496.29 1492.53 1496.29Z" fill="#FF5B7E"/>
<path d="M1547.72 250.644C1547.72 250.644 1599.01 241.997 1616.21 299.294L1594.95 331.082C1594.95 331.082 1550.4 313.964 1550.23 312.288C1550.06 310.612 1547.72 250.644 1547.72 250.644Z" fill="#FF5B7E"/>
<path d="M1465.15 276.458C1465.15 276.458 1450.21 298.954 1442.56 307.865C1423.37 330.27 1420.89 323.266 1408.96 342.567C1396.08 363.394 1409.11 376.439 1416.52 382.438C1423.93 388.437 1411.54 410.65 1425.33 423.097C1443.39 439.394 1460.11 424.027 1472.53 433.154C1484.95 442.282 1487.67 455.815 1517.13 453.26C1546.58 450.704 1546.29 354.416 1546.29 354.416C1546.29 354.416 1522.22 303.36 1521.23 302.97C1520.23 302.58 1465.15 276.458 1465.15 276.458Z" fill="#FF5B7E"/>
<path d="M1616.19 299.294C1616.19 299.294 1617.95 316.96 1623.8 327.141C1638.5 352.748 1646.42 344.359 1654.56 365.535C1663.36 388.387 1648.13 398.793 1639.74 403.315C1631.35 407.837 1639.41 431.959 1623.54 441.634C1602.79 454.297 1589.2 436.1 1575.3 442.771C1561.4 449.443 1556.21 462.23 1527.75 454.255C1499.28 446.281 1517.42 351.711 1517.42 351.711C1517.42 351.711 1550.61 306.015 1551.59 305.783C1552.57 305.55 1616.19 299.294 1616.19 299.294Z" fill="#FF5B7E"/>
<path d="M1541.77 413.322C1541.77 413.322 1492.62 404.278 1470.01 405.024C1447.41 405.771 1483.72 464.561 1483.72 464.561L1520.64 465.391C1520.64 465.391 1543.27 440.124 1541.77 437.178C1540.28 434.233 1541.85 414.957 1541.85 414.957L1541.77 413.322Z" fill="#FFC0BB"/>
<path d="M1497.93 366.423L1484.98 405.763C1484.98 405.763 1496.27 429.096 1530.84 419.039C1530.84 419.039 1526.89 410.891 1532.19 394.146C1537.59 376.961 1497.93 366.423 1497.93 366.423Z" fill="#FFC0BB"/>
<path opacity="0.6" d="M1497.93 366.423L1491.85 384.803C1495.47 398.237 1507.23 407.389 1529.43 410.227C1529.5 404.746 1530.43 399.311 1532.17 394.113C1537.59 376.961 1497.93 366.423 1497.93 366.423Z" fill="#FC8D84"/>
<path d="M1577.03 337.613C1574.23 344.002 1576.11 350.997 1581.18 353.246C1586.26 355.495 1592.71 352.126 1595.52 345.778C1598.32 339.43 1596.45 332.394 1591.37 330.145C1586.28 327.896 1579.84 331.224 1577.03 337.613Z" fill="#F99893"/>
<path d="M1578.47 366.631C1581.53 358.693 1583.57 350.397 1584.54 341.945C1584.74 340.285 1585.04 338.625 1585.37 337.032C1586.85 329.698 1586.8 322.136 1585.21 314.824C1583.62 307.512 1580.52 300.612 1576.12 294.559C1571.72 288.507 1566.11 283.436 1559.64 279.668C1553.18 275.899 1546 273.516 1538.56 272.669C1531.13 271.823 1523.6 272.531 1516.45 274.749C1509.3 276.967 1502.69 280.646 1497.04 285.554C1491.39 290.461 1486.83 296.489 1483.63 303.256C1480.43 310.022 1478.68 317.379 1478.48 324.859C1475.16 322.893 1471.38 322.37 1468 323.756C1461.52 326.444 1458.99 335.198 1462.35 343.297C1465.72 351.396 1473.7 355.744 1480.17 353.088C1481.07 352.721 1481.9 352.229 1482.66 351.628C1484.65 378.123 1505.76 399.092 1531.73 399.357C1551.21 399.556 1570.41 387.724 1578.47 366.631Z" fill="#FFC0BB"/>
<path d="M1544.57 326.104C1543.56 329.049 1542.98 332.122 1542.84 335.231C1542.74 336.815 1542.8 338.404 1543 339.978C1543.2 341.694 1543.77 343.347 1544.66 344.824C1545.84 346.342 1546.46 346.84 1546.64 348.06C1546.7 348.634 1546.63 349.214 1546.46 349.762C1546.28 350.311 1545.99 350.816 1545.6 351.246C1543.94 353.288 1541.09 354.408 1538.13 355.022C1539.73 355.4 1541.39 355.399 1542.98 355.017C1544.57 354.635 1546.05 353.883 1547.3 352.823C1548.01 352.2 1548.58 351.424 1548.95 350.553C1549.32 349.683 1549.49 348.74 1549.44 347.794C1549.29 345.703 1548.36 344.774 1547.14 343.189C1546.48 342.047 1546.03 340.801 1545.8 339.505C1545.51 338.08 1545.31 336.639 1545.19 335.19C1544.87 332.186 1544.75 329.166 1544.57 326.104Z" fill="#F99893"/>
<path d="M1526.82 330.825C1526.81 331.758 1526.53 332.667 1526 333.438C1525.48 334.208 1524.73 334.806 1523.87 335.155C1523 335.503 1522.06 335.588 1521.14 335.397C1520.23 335.207 1519.39 334.75 1518.74 334.084C1518.09 333.418 1517.65 332.574 1517.47 331.657C1517.3 330.741 1517.4 329.794 1517.77 328.936C1518.13 328.078 1518.75 327.348 1519.53 326.838C1520.31 326.328 1521.22 326.061 1522.16 326.071C1522.77 326.076 1523.39 326.203 1523.95 326.445C1524.52 326.687 1525.04 327.039 1525.47 327.481C1525.91 327.923 1526.25 328.445 1526.48 329.019C1526.71 329.593 1526.83 330.207 1526.82 330.825Z" fill="#333333"/>
<path d="M1567.26 333.887C1567.25 334.82 1566.97 335.729 1566.44 336.5C1565.92 337.27 1565.17 337.868 1564.31 338.217C1563.44 338.565 1562.5 338.65 1561.58 338.459C1560.67 338.269 1559.83 337.812 1559.18 337.146C1558.53 336.48 1558.09 335.636 1557.91 334.719C1557.74 333.803 1557.84 332.856 1558.21 331.998C1558.58 331.14 1559.19 330.41 1559.97 329.9C1560.75 329.39 1561.66 329.123 1562.6 329.133C1563.21 329.138 1563.83 329.265 1564.4 329.507C1564.96 329.749 1565.48 330.101 1565.91 330.543C1566.35 330.985 1566.69 331.507 1566.92 332.081C1567.15 332.655 1567.27 333.269 1567.26 333.887Z" fill="#333333"/>
<g style="mix-blend-mode:multiply" opacity="0.3">
<path d="M1525.99 366.663C1528.17 365.996 1530.46 365.806 1532.72 366.105C1534.98 366.404 1537.15 367.186 1539.08 368.398C1539.08 368.398 1545.93 364.108 1551.33 368.207C1551.33 368.207 1548.84 378.413 1537.56 377.724C1526.27 377.036 1525.99 366.663 1525.99 366.663Z" fill="#F99893"/>
</g>
<path d="M1520.09 363.004C1522.63 365.04 1525.42 366.748 1528.39 368.091C1531.31 369.423 1534.43 370.264 1537.63 370.58C1540.82 370.841 1544.04 370.483 1547.09 369.526C1550.17 368.494 1553.1 367.036 1555.77 365.195C1554.55 366.304 1553.24 367.309 1551.86 368.199C1550.45 369.077 1548.96 369.824 1547.41 370.431C1545.84 371.019 1544.21 371.436 1542.55 371.675C1540.89 371.889 1539.2 371.934 1537.52 371.808C1534.19 371.492 1530.95 370.525 1527.98 368.962C1525.02 367.456 1522.35 365.439 1520.09 363.004Z" fill="#F99893"/>
<path d="M1532.34 319.98C1530.06 319.342 1527.74 318.874 1525.39 318.578C1523.22 318.308 1521.01 318.339 1518.84 318.669C1516.69 318.994 1514.59 319.634 1512.61 320.569C1511.07 321.117 1507.34 323.498 1506.37 323.963C1507.47 321.606 1509.14 319.556 1511.21 317.993C1513.29 316.431 1515.73 315.403 1518.3 315.001C1520.91 314.6 1523.58 314.856 1526.07 315.748C1528.5 316.58 1530.66 318.04 1532.34 319.98Z" fill="#FF5B7E"/>
<path d="M1553.18 321.548C1555.08 319.829 1557.4 318.646 1559.91 318.121C1562.49 317.536 1565.17 317.604 1567.72 318.32C1570.28 319.022 1572.61 320.377 1574.49 322.254C1576.33 324.02 1577.7 326.228 1578.46 328.668C1577.55 328.079 1574.14 325.266 1572.65 324.519C1570.81 323.347 1568.81 322.455 1566.7 321.872C1564.59 321.279 1562.41 320.981 1560.21 320.984C1557.86 321 1555.5 321.188 1553.18 321.548Z" fill="#FF5B7E"/>
<path d="M1456.27 653.743C1456.27 653.743 1441.77 721.959 1507.56 738.157C1573.34 754.354 1656.35 755.997 1656.35 755.997L1657.88 914.892L1692.5 918.858C1692.5 918.858 1795.82 704.775 1674.19 662.572L1562.89 656.1L1517.25 649.934C1517.25 649.934 1471.61 635.554 1470.94 637.703C1470.26 639.852 1457.27 654.905 1456.27 653.743Z" fill="#F4A640"/>
<path d="M1395.1 650.25C1395.1 650.25 1380.6 718.466 1446.39 734.663C1512.17 750.861 1595.18 752.504 1595.18 752.504L1596.71 911.398L1631.33 915.365C1631.33 915.365 1734.65 701.281 1613.02 659.078L1501.73 652.598L1456.09 646.433C1456.09 646.433 1410.45 632.061 1409.77 634.21C1409.1 636.359 1396.13 651.378 1395.1 650.25Z" fill="#FEB546"/>
<path d="M1615.07 757.059C1613.18 756.719 1611.28 756.395 1609.41 755.956C1607.54 755.516 1605.68 755.018 1603.86 754.462C1602.94 754.18 1602.01 753.873 1601.11 753.533C1602.06 753.321 1602.99 753.044 1603.9 752.703C1605.69 752.044 1607.4 751.169 1608.98 750.097C1610.52 749.001 1611.94 747.75 1613.23 746.363C1614.48 744.975 1615.59 743.466 1616.55 741.857L1614.66 743.899C1613.98 744.529 1613.36 745.202 1612.65 745.791C1611.3 747.012 1609.83 748.098 1608.27 749.035C1606.73 749.965 1605.09 750.732 1603.39 751.325C1601.73 751.911 1599.99 752.263 1598.22 752.371L1595.15 752.479L1597.88 753.748C1599.69 754.554 1601.55 755.209 1603.47 755.707C1605.35 756.229 1607.27 756.603 1609.18 756.935C1611.1 757.267 1613.04 757.515 1614.99 757.657C1616.95 757.798 1618.86 757.897 1620.8 757.889C1618.89 757.64 1616.97 757.408 1615.07 757.059Z" fill="#DAEEF7"/>
<path d="M1597.64 509.079C1597.64 509.079 1602.12 620.535 1614.65 637.994L1545.72 622.336V501.022L1597.64 509.079Z" fill="#FFC0BB"/>
<path d="M1568.27 524.297C1568.27 524.297 1558.68 552.352 1556.94 567.255C1552.6 604.255 1557.31 630.318 1564.97 651.419C1575.71 680.96 1487.97 670.222 1486.18 669.326C1484.39 668.43 1409.18 639.338 1409.18 639.338L1394.85 597.708V524.297L1398.89 490.732L1568.27 524.297Z" fill="#02CCC0"/>
<path d="M1358.15 490.732L1413.36 509.527C1413.36 509.527 1403.81 597.857 1406.79 610.387C1409.34 621.099 1449.38 642.4 1474.75 654.324C1478.83 656.246 1483.34 657.064 1487.84 656.697C1502.29 655.51 1527.91 653.27 1531.93 652.996C1538.25 652.556 1555.61 652.996 1556.16 655.22C1556.69 657.278 1542.6 655.012 1533.47 656.879C1532.19 657.145 1532.88 658.863 1533.17 658.871C1538.01 659.053 1550.49 659.584 1554.59 660.954C1559.62 662.613 1541.83 661.294 1532.19 663.07C1531.51 663.194 1530.97 665.103 1531.46 665.559C1532.61 666.687 1536.79 667.675 1548.27 668.878C1567.43 670.836 1548.69 673.218 1548.69 673.218C1548.69 673.218 1546.97 672.72 1530.5 670.471C1529.9 670.388 1529.23 672.131 1530.14 672.894C1533.12 675.45 1536.6 677.357 1540.35 678.495C1546.52 680.321 1542.01 681.922 1542.01 681.922C1542.01 681.922 1530.34 678.445 1523.76 677.956C1518.85 677.582 1495.76 679.466 1486.29 680.005L1485.57 678.346C1472.73 677.972 1370.3 675.309 1360.44 611.831C1350.39 546.535 1358.15 490.732 1358.15 490.732Z" fill="#FFC0BB"/>
<path d="M1759.46 553.987H1583.53L1533.62 675.74H1448.88C1447.74 675.74 1446.65 676.192 1445.84 676.997C1445.04 677.801 1444.59 678.893 1444.59 680.03C1444.59 681.167 1445.04 682.257 1445.85 683.061C1446.65 683.865 1447.74 684.318 1448.88 684.32H1700.99L1759.46 553.987Z" fill="#07085B"/>
<path d="M1672.21 623.464C1671.17 628.65 1666.65 632.119 1662.11 631.214C1657.57 630.31 1654.73 625.356 1655.77 620.17C1656.8 614.984 1661.33 611.515 1665.86 612.42C1670.4 613.324 1673.26 618.27 1672.21 623.464Z" fill="#DAEEF7"/>
<path d="M1541.77 413.322C1541.77 413.322 1508.36 452.322 1470.01 405.024C1470.01 405.024 1428.12 401.614 1397.23 423.545C1366.35 445.476 1347.86 494.74 1347.86 494.74C1347.86 494.74 1403.81 522.953 1417.69 524.28H1573.02C1573.02 524.28 1596.75 522.496 1619.57 510.854C1619.57 510.871 1615.64 432.565 1541.77 413.322Z" fill="#02CCC0"/>
<path d="M1438.11 479.862C1436.67 484.692 1435.37 489.571 1434.09 494.45C1431.67 504.034 1429.46 513.162 1427.84 522.961C1424.68 523.004 1421.52 522.76 1418.4 522.231C1402.27 519.36 1391.67 514.846 1377.31 508.955C1355.79 499.155 1358.69 500.101 1347.86 494.749C1357.05 500.678 1366.59 506.07 1376.41 510.896C1388.99 516.705 1401.02 522.132 1417.96 525.11C1425.35 526.123 1427.48 525.899 1430.29 525.583C1431.38 518.389 1432.64 511.029 1436.1 494.882L1439.29 480.12L1442.61 465.358C1440.96 470.179 1439.54 475.025 1438.11 479.862Z" fill="#07085B"/>
<path d="M1560.66 454.064C1562.87 459.79 1564.86 465.549 1566.62 471.34C1568.41 477.113 1569.85 482.987 1570.94 488.932C1572.05 494.826 1572.53 500.825 1572.36 506.822C1572.13 512.796 1563.23 540.934 1560.66 546.502C1564.35 541.523 1573.99 513.186 1574.65 507.004C1575.27 500.798 1574.99 494.535 1573.82 488.409C1572.7 482.326 1571.01 476.364 1568.77 470.602C1566.61 464.837 1563.9 459.298 1560.66 454.064Z" fill="#07085B"/>
<path d="M1478.48 324.859C1478.48 324.859 1535.87 311.01 1563.29 272.019C1563.29 272.019 1563.77 236.513 1511.08 244.561C1459.89 252.395 1447.91 302.206 1478.48 324.859Z" fill="#FF5B7E"/>
<path d="M2047.58 1565.52H259.694C254.409 1565.52 250.125 1569.8 250.125 1575.08V1579.48C250.125 1584.76 254.409 1589.05 259.694 1589.05H2047.58C2052.86 1589.05 2057.15 1584.76 2057.15 1579.48V1575.08C2057.15 1569.8 2052.86 1565.52 2047.58 1565.52Z" fill="#C4DFE8"/>
<path d="M239.171 790.466L584.326 593.069L630.981 685.474L277.801 872.299L239.171 790.466Z" fill="#F4A640"/>
<path d="M889.63 228.19C889.63 228.19 886.9 255.033 865.722 256.892C886.9 258.742 889.63 285.586 889.63 285.586C889.63 285.586 892.352 258.742 913.531 256.892C892.336 255.033 889.63 228.19 889.63 228.19Z" fill="#02CCC0"/>
<path d="M523.604 21.9889C523.604 21.9889 519.977 57.7442 491.761 60.2169C519.977 62.7063 523.604 98.4449 523.604 98.4449C523.604 98.4449 527.23 62.6897 555.446 60.2169C527.23 57.7442 523.604 21.9889 523.604 21.9889Z" fill="#FEB546"/>
<path d="M375.778 341.762C375.778 341.762 373.338 365.768 354.358 367.435C373.305 369.095 375.744 393.101 375.744 393.101C375.744 393.101 378.176 369.095 397.122 367.435C378.209 365.768 375.778 341.762 375.778 341.762Z" fill="#FF5B7E"/>
<path d="M1990.94 834.071C1990.94 834.071 1987.31 869.826 1959.09 872.299C1987.31 874.788 1990.94 910.519 1990.94 910.519C1990.94 910.519 1994.56 874.772 2022.78 872.299C1994.56 869.826 1990.94 834.071 1990.94 834.071Z" fill="#FF5B7E"/>
<path d="M31.8424 599.766C31.8424 599.766 28.2159 635.521 0 637.994C28.2159 640.483 31.8424 676.213 31.8424 676.213C31.8424 676.213 35.469 640.466 63.6849 637.994C35.469 635.521 31.8424 599.766 31.8424 599.766Z" fill="#02CCC0"/>
<path d="M2098.15 554.85C2098.15 554.85 2094.52 590.597 2066.31 593.069C2094.52 595.559 2098.15 631.297 2098.15 631.297C2098.15 631.297 2101.78 595.542 2130 593.069C2101.78 590.597 2098.15 554.85 2098.15 554.85Z" fill="#02CCC0"/>
<path d="M1249.7 -6.10352e-05C1249.7 -6.10352e-05 1246.07 35.7552 1217.86 38.228C1246.07 40.7173 1249.7 76.4477 1249.7 76.4477C1249.7 76.4477 1253.32 40.7007 1281.54 38.228C1253.32 35.7552 1249.7 -6.10352e-05 1249.7 -6.10352e-05Z" fill="#FF5B7E"/>
<path d="M1854.2 274.442C1854.2 274.442 1852.22 297.02 1836.89 298.58C1852.22 300.14 1854.2 322.718 1854.2 322.718C1854.2 322.718 1856.17 300.14 1871.5 298.58C1856.17 297.061 1854.2 274.442 1854.2 274.442Z" fill="#FEB546"/>
</svg>
